<?xml version="1.0" standalone="no"?>
<!DOCTYPE svg PUBLIC "-//W3C//DTD SVG 20010904//EN"
 "http://www.w3.org/TR/2001/REC-SVG-20010904/DTD/svg10.dtd">
<svg version="1.0" xmlns="http://www.w3.org/2000/svg"
	width="76.000000pt" height="73.000000pt" viewBox="0 0 76.000000 73.000000"
	preserveAspectRatio="xMidYMid meet">

	<g transform="translate(0.000000,73.000000) scale(0.100000,-0.100000)" fill="#000000" stroke="none">
		<path fill="#e84d1f" d="M505 627 c-311 -161 -386 -217 -418 -312 -71 -207 105 -362 301 -264
			72 35 107 79 176 216 56 112 168 374 163 379 -2 3 -26 -33 -53 -78 -63 -107
			-105 -153 -159 -174 -42 -16 -46 -16 -71 1 -23 15 -26 22 -21 57 8 60 50 110
			153 183 81 58 103 76 92 75 -2 0 -75 -38 -163 -83z m-166 -353 c30 -33 33 -41
			28 -81 -7 -65 -51 -108 -111 -108 -57 0 -97 29 -114 82 -39 122 110 203 197 107z"/>
		<path fill="#4b4a48" d="M215 291 c-82 -34 -74 -160 12 -184 58 -17 123 33 123 94 0 36 -28
			77 -61 88 -37 13 -46 13 -74 2z"/>
	</g>
</svg>
